<?xml version="1.0" standalone="no"?>
<!DOCTYPE svg PUBLIC "-//W3C//DTD SVG 20010904//EN"
 "http://www.w3.org/TR/2001/REC-SVG-20010904/DTD/svg10.dtd">
<svg version="1.0" xmlns="http://www.w3.org/2000/svg"
 width="500.000000pt" height="500.000000pt" viewBox="0 0 500.000000 500.000000"
 preserveAspectRatio="xMidYMid meet">
<metadata>
Created by potrace 1.14, written by Peter Selinger 2001-2017
</metadata>
<g transform="translate(0.000000,500.000000) scale(0.100000,-0.100000)"
fill="#000000" stroke="none">
<path d="M2359 4406 c-2 -2 -31 -6 -64 -9 -184 -18 -388 -77 -581 -167 -47
-22 -88 -40 -90 -40 -2 0 -45 -25 -95 -56 -286 -177 -557 -471 -704 -764 -98
-195 -169 -431 -192 -640 -3 -30 -7 -62 -9 -70 -1 -8 -3 -65 -3 -127 l-1 -111
-68 -51 c-100 -73 -203 -201 -253 -311 -27 -61 -59 -195 -59 -251 0 -107 39
-221 102 -300 31 -39 134 -113 190 -137 80 -34 157 -45 321 -47 165 -2 168 -3
184 -26 42 -65 276 -279 391 -359 230 -160 510 -281 726 -314 21 -4 41 -8 45
-10 3 -2 38 -7 76 -11 39 -4 79 -9 90 -11 50 -10 353 -2 435 11 356 59 629
176 910 393 73 56 262 238 310 298 66 83 94 122 147 210 33 56 79 139 100 185
65 136 140 387 159 529 19 146 25 399 11 469 -7 31 -2 38 81 122 195 200 273
406 228 604 -22 97 -21 94 -30 102 -4 4 -14 22 -21 38 -25 59 -109 139 -186
178 -117 58 -170 68 -349 63 -85 -3 -165 -8 -177 -12 -18 -5 -40 11 -125 93
-292 280 -673 466 -1062 518 -87 11 -427 20 -437 11z"/>
</g>
</svg>
